<svg xmlns="http://www.w3.org/2000/svg" width="120" height="58"><defs><clipPath id="a"><path d="M.082 0h119.86v57H.081zm0 0"/></clipPath><clipPath id="b"><path d="M45 52h63v5.934H45zm0 0"/></clipPath><clipPath id="c"><path d="M9.457 19.113H110.57V38.82H9.457zm0 0"/></clipPath></defs><g clip-path="url(#a)"><path style="stroke:none;fill-rule:nonzero;fill:#b7b7b7;fill-opacity:1" d="M.082 56.746V0h119.86v56.746h-7.02V54.97h5.25V1.777H1.855V54.97h38.586v1.777zm0 0"/></g><g clip-path="url(#b)"><path style="stroke:none;fill-rule:nonzero;fill:#b7b7b7;fill-opacity:1" d="M51.832 55.59v2.047c0 .05-.125.09-.375.117-.25.031-.512.043-.781.043-.27 0-.442-.012-.524-.035-.078-.024-.12-.067-.12-.125v-1.852c0-.637-.063-.957-.192-.957a.162.162 0 0 0-.094.04c-.031.027-.047.073-.047.14v2.629c0 .05-.125.09-.375.117a6.434 6.434 0 0 1-.785.043c-.273 0-.445-.012-.523-.035-.078-.024-.118-.067-.118-.125v-1.852c0-.496-.03-.793-.093-.89a.144.144 0 0 0-.121-.067c-.082 0-.125.063-.125.18v2.629c0 .05-.13.09-.38.117a6.434 6.434 0 0 1-.784.043c-.27 0-.442-.012-.52-.035-.078-.024-.117-.067-.117-.125V54.34c0-.094.129-.188.383-.281.257-.094.527-.141.812-.141.281 0 .442.082.477.25l.062.293h.047c.129-.254.34-.434.64-.543.126-.04.286-.059.481-.059.39 0 .676.2.852.602.058-.133.203-.27.433-.402.23-.133.489-.2.77-.2.437 0 .734.137.89.41.153.274.227.715.227 1.32zm2.441.695h-.218c0 .293.136.438.414.438.16 0 .367-.055.625-.164.258-.11.394-.164.406-.164.086 0 .2.125.336.378.137.254.207.442.207.563 0 .176-.18.305-.535.394-.356.09-.703.133-1.043.133a3.74 3.74 0 0 1-.852-.078 2.164 2.164 0 0 1-.562-.203 1.512 1.512 0 0 1-.38-.305 1.596 1.596 0 0 1-.245-.347 1.72 1.72 0 0 1-.125-.364 2.602 2.602 0 0 1-.067-.609c0-.809.211-1.371.633-1.676.207-.156.442-.265.7-.328.257-.062.562-.094.913-.094 1.125 0 1.688.391 1.688 1.176 0 .836-.629 1.25-1.895 1.25zm-.23-.976v.441c.129 0 .234-.05.316-.152a.576.576 0 0 0 .121-.375c0-.266-.066-.403-.207-.403-.156 0-.234.164-.23.489zm5.148 2.43c-.082.074-.261.113-.546.113-.286 0-.524-.02-.708-.059a1.42 1.42 0 0 1-.535-.223c-.324-.218-.488-.672-.488-1.363v-1.043h-.332c-.047 0-.09-.05-.125-.156a1.33 1.33 0 0 1-.055-.422c0-.176.028-.336.082-.469.059-.137.13-.203.22-.203h.21v-.812c0-.137.137-.25.406-.332.27-.086.532-.13.79-.13.406 0 .605.102.605.301v.973h.496c.113 0 .172.164.172.5 0 .219-.024.398-.074.54-.051.14-.118.21-.2.21h-.394v1.223c0 .12.055.207.156.258.102.05.191.078.27.078.078 0 .125.035.144.113.016.074.024.187.024.34 0 .3-.04.488-.118.562zm1.86.12c-.406 0-.723-.097-.953-.289a.932.932 0 0 1-.243-.355 1.313 1.313 0 0 1-.105-.547c0-.211.05-.39.152-.547.098-.156.22-.277.364-.363.14-.086.308-.153.5-.207.289-.074.605-.114.953-.114h.218c0-.183-.062-.312-.187-.386a.481.481 0 0 0-.242-.047c-.11 0-.238.027-.39.086a2.642 2.642 0 0 0-.388.176.512.512 0 0 1-.207.09c-.078 0-.187-.106-.324-.317-.14-.21-.207-.406-.207-.578 0-.059.082-.133.246-.227.164-.093.395-.18.696-.257.3-.079.593-.118.879-.118.285 0 .53.024.738.07.203.048.375.102.504.169.133.07.242.156.336.27.09.112.16.21.207.3.047.09.078.207.101.348.031.164.047.367.047.609v2.012c0 .05-.121.09-.355.117a5.45 5.45 0 0 1-.707.043c-.235 0-.387-.004-.454-.02-.07-.011-.113-.027-.125-.047-.015-.015-.023-.046-.035-.093l-.05-.38h-.055c-.11.4-.414.602-.914.602zm.894-1.113v-.781c-.117 0-.21.05-.28.148a.551.551 0 0 0-.106.332c0 .297.066.446.199.442.058 0 .105-.012.137-.043a.117.117 0 0 0 .05-.098zm8.344-1.156v2.047c0 .05-.125.09-.375.117a6.37 6.37 0 0 1-.781.043c-.27 0-.445-.012-.524-.035-.082-.024-.12-.067-.12-.125v-1.852c0-.637-.067-.957-.196-.957a.162.162 0 0 0-.094.04c-.027.027-.043.073-.043.14v2.629c0 .05-.129.09-.379.117-.25.031-.511.043-.785.043-.27 0-.445-.012-.52-.035-.077-.024-.117-.067-.12-.125v-1.852c0-.496-.028-.793-.09-.89a.149.149 0 0 0-.121-.067c-.086 0-.13.063-.13.18v2.629c0 .05-.124.09-.378.117a6.413 6.413 0 0 1-.781.043c-.27 0-.446-.012-.524-.035-.078-.024-.117-.067-.117-.125V54.34c0-.094.129-.188.387-.281.254-.094.523-.141.808-.141.285 0 .446.082.48.25l.06.293h.046c.13-.254.344-.434.64-.543.126-.04.286-.059.481-.059.39 0 .676.2.856.602.058-.133.199-.27.433-.402.23-.133.485-.2.766-.2.441 0 .738.137.89.41.153.274.231.715.231 1.32zm1.734 2.27c-.406 0-.722-.098-.953-.29a.932.932 0 0 1-.242-.355 1.313 1.313 0 0 1-.105-.547c0-.211.05-.39.148-.547.102-.156.223-.277.363-.363a2.16 2.16 0 0 1 .5-.207c.29-.074.61-.114.957-.114h.22c0-.183-.063-.312-.188-.386a.491.491 0 0 0-.243-.047c-.109 0-.242.027-.394.086a2.776 2.776 0 0 0-.383.176.512.512 0 0 1-.207.09c-.078 0-.187-.106-.328-.317-.137-.21-.207-.406-.207-.578 0-.059.082-.133.25-.227.164-.093.394-.18.695-.257.301-.079.594-.118.88-.118.28 0 .526.024.734.07.207.048.375.102.507.169.133.07.243.156.332.27.094.112.16.21.207.3.047.09.082.207.106.348.031.164.047.367.047.609v2.012c0 .05-.121.09-.36.117a5.39 5.39 0 0 1-.703.043c-.234 0-.386-.004-.457-.02-.066-.011-.11-.027-.12-.047-.016-.015-.028-.046-.036-.093l-.055-.38h-.05c-.114.4-.418.602-.915.602zm.895-1.114v-.781c-.117 0-.211.05-.281.148a.551.551 0 0 0-.106.332c0 .297.067.446.2.442.058 0 .101-.012.136-.043.031-.028.051-.059.051-.098zM77 57.86c-.738 0-1.281-.074-1.621-.214-.176-.075-.262-.149-.262-.223 0-.18.055-.395.16-.64.106-.247.2-.368.282-.368.043 0 .195.047.449.148.258.098.472.145.648.145.176 0 .29-.012.348-.031.055-.024.082-.067.082-.133 0-.063-.047-.113-.133-.152a1.216 1.216 0 0 0-.336-.078 2.797 2.797 0 0 1-.43-.079 2.788 2.788 0 0 1-.43-.156.748.748 0 0 1-.331-.312.857.857 0 0 1-.133-.465c0-.168.004-.293.012-.375.007-.082.047-.2.11-.348a.951.951 0 0 1 .272-.363c.118-.094.301-.18.547-.258.246-.074.524-.113.832-.113.305 0 .563.011.77.031.207.02.367.047.488.078.117.031.211.067.29.106.128.066.19.14.19.222 0 .172-.062.375-.183.602-.125.226-.226.34-.297.34-.074 0-.234-.04-.476-.118-.246-.078-.426-.117-.543-.117-.188 0-.282.055-.282.16 0 .067.067.118.192.153.129.031.281.066.457.101.18.035.355.086.539.153.18.062.332.18.457.351.129.168.191.383.191.64 0 .876-.62 1.313-1.859 1.313zm4.059-.222c0 .05-.121.09-.371.117-.25.031-.508.043-.782.043-.27 0-.445-.012-.527-.035-.078-.024-.121-.067-.121-.125v-4.63c0-.097.129-.19.379-.284.25-.094.52-.141.808-.141.41 0 .614.102.614.309v2.5h.09c.21-1.02.37-1.532.472-1.532.258 0 .57.059.934.18.363.121.547.254.547.402 0 .106-.09.313-.266.614-.18.304-.363.55-.555.742.637.766.953 1.215.953 1.36 0 .132-.203.296-.605.488-.406.19-.692.289-.856.289-.078 0-.164-.098-.253-.293a6.128 6.128 0 0 1-.286-.871l-.175.207zm9.007 0c-.058.11-.359.16-.906.16-.543 0-.828-.05-.847-.16l-.231-1.215h-.09l-.215 1.215c-.015.11-.402.16-1.168.16-.214 0-.355-.012-.421-.035a.232.232 0 0 1-.145-.125c-.828-2.035-1.242-3.11-1.242-3.215 0-.11.164-.219.484-.332.324-.113.633-.172.93-.172.383 0 .582.102.594.309l.226 1.832h.082l.078-1.477c.004-.113.121-.21.34-.297a1.95 1.95 0 0 1 .676-.125c.227 0 .398.028.512.082.113.055.172.125.175.203l.075 1.614h.07l.223-1.72c.011-.105.164-.202.449-.292.285-.086.539-.129.758-.129.215 0 .386.031.511.094.207.097.309.215.309.347 0 .016-.203.559-.606 1.633a110.06 110.06 0 0 1-.62 1.645zm2.758.222c-.402 0-.722-.097-.953-.289a.978.978 0 0 1-.242-.355 1.313 1.313 0 0 1-.106-.547c0-.211.051-.39.153-.547.101-.156.222-.277.363-.363.14-.086.309-.153.5-.207.29-.074.606-.114.953-.114h.223c0-.183-.063-.312-.188-.386a.502.502 0 0 0-.242-.047c-.11 0-.242.027-.394.086a2.847 2.847 0 0 0-.387.176c-.102.062-.168.09-.203.09-.082 0-.192-.106-.328-.317-.137-.21-.207-.406-.207-.578 0-.059.082-.133.246-.227.164-.093.398-.18.699-.257.297-.079.59-.118.875-.118.285 0 .531.024.738.07.207.048.375.102.508.169.129.07.242.156.332.27.09.112.16.21.207.3.047.09.082.207.102.348.03.164.047.367.047.609v2.012c0 .05-.118.09-.356.117a5.408 5.408 0 0 1-.707.043c-.234 0-.387-.004-.453-.02-.07-.011-.11-.027-.125-.047a.231.231 0 0 1-.031-.093l-.055-.38h-.055c-.11.4-.414.602-.914.602zm.895-1.113v-.781a.33.33 0 0 0-.278.148.53.53 0 0 0-.109.332c0 .297.066.446.2.442.058 0 .105-.012.14-.043a.124.124 0 0 0 .047-.098zm4.07-3.855v4.746c0 .05-.129.09-.383.117-.25.031-.511.043-.781.043s-.441-.012-.52-.035c-.078-.024-.117-.067-.117-.125v-4.63c0-.097.125-.19.375-.284.254-.094.524-.141.813-.141.406 0 .613.102.613.309zm2.266 0v4.746c0 .05-.125.09-.38.117a6.434 6.434 0 0 1-.784.043c-.266 0-.442-.012-.52-.035-.078-.024-.117-.067-.117-.125v-4.63c0-.097.129-.19.379-.284.25-.094.52-.141.808-.141.41 0 .614.102.614.309zm2.441 3.394h-.219c0 .293.137.438.414.438.16 0 .368-.055.625-.164.258-.11.395-.164.407-.164.086 0 .199.125.336.378.136.254.207.442.207.563 0 .176-.18.305-.536.394-.355.09-.703.133-1.043.133a3.74 3.74 0 0 1-.851-.078 2.164 2.164 0 0 1-.563-.203 1.53 1.53 0 0 1-.382-.305 1.71 1.71 0 0 1-.243-.347 1.72 1.72 0 0 1-.125-.364 2.602 2.602 0 0 1-.066-.609c0-.809.211-1.371.633-1.676.207-.156.441-.265.7-.328.257-.062.562-.094.913-.094 1.125 0 1.688.391 1.688 1.176 0 .836-.63 1.25-1.895 1.25zm-.23-.976v.441c.129 0 .234-.05.316-.152a.576.576 0 0 0 .121-.375c0-.266-.066-.403-.207-.403-.156 0-.234.164-.23.489zm5.148 2.43c-.082.074-.262.113-.547.113-.285 0-.523-.02-.707-.059a1.42 1.42 0 0 1-.535-.223c-.324-.218-.488-.672-.488-1.363v-1.043h-.332c-.047 0-.09-.05-.125-.156a1.33 1.33 0 0 1-.055-.422c0-.176.027-.336.082-.469.059-.137.129-.203.219-.203h.21v-.812c0-.137.137-.25.407-.332.27-.086.531-.13.789-.13.406 0 .606.102.606.301v.973h.496c.113 0 .171.164.171.5 0 .219-.023.398-.078.54-.05.14-.113.21-.195.21h-.394v1.223c0 .12.054.207.156.258.101.05.191.078.27.078.077 0 .124.035.144.113.015.074.023.187.023.34 0 .3-.039.488-.117.562zm0 0"/></g><g clip-path="url(#c)"><path style="stroke:none;fill-rule:nonzero;fill:#b7b7b7;fill-opacity:1" d="m19.43 32.59-1.836 6.23H14.59L9.46 19.113h2.477l1.836 7.309 2.422 9.91a633.522 633.522 0 0 1 2.77-9.91l2.039-7.016h2.363l2.156 7.016 2.973 10c.895-4.309 1.613-7.633 2.16-9.969l1.66-7.34h2.391L30.102 38.82H27.07l-1.894-6.23-2.946-9.852c-.605 2.301-1.535 5.586-2.8 9.852zm22.683-2.074-.379 1.109h6.97l-.38-1.14-3.062-9.473c-.23.84-1.282 4.008-3.149 9.504zm-1.05 3.129-1.747 5.175h-2.539l6.852-19.707h3.266l6.734 19.707h-2.535l-1.719-5.175zm26.562 3.039v2.136h-10.73V19.113h2.363v17.57zm13.902 0v2.136h-10.73V19.113h2.363v17.57zm14.141.058v2.078H84.707V19.113h10.816v2.075h-8.457v6.753h7.465v2.079h-7.465v6.722zm14.898-17.629v2.075h-5.304V38.82h-2.364V21.187h-5.304v-2.074zm0 0"/></g></svg>